# xmcd
#
# Track frame offsets: 
#        150
#        18723
#        31999
#        41832
#        62280
#        83677
#        104836
#        119835
#        135142
#        163111
#        176670
#        192965
#
# Disc length: 2858 seconds
#
# Revision: 0
# Processed by: cddbd v1.5.2PL0 Copyright (c) Steve Scherf et al.
# Submitted via: ExactAudioCopy v0.99pb5
#
DISCID=a20b280c
DTITLE=The Streamliners - Signs
DYEAR=2009
DGENRE=Blues
TTITLE0=Thin line
TTITLE1=Cain is Abel
TTITLE2=Do the dirty
TTITLE3=Misty morning blues
TTITLE4=T-Rex blues
TTITLE5=Hats off (Dennis Hopper)
TTITLE6=Signs
TTITLE7=Midnight rider
TTITLE8=Hummingbird revisited
TTITLE9=Sunset Inn
TTITLE10=Eagle in the sky
TTITLE11=Where in the world
EXTD=
EXTT0=
EXTT1=
EXTT2=
EXTT3=
EXTT4=
EXTT5=
EXTT6=
EXTT7=
EXTT8=
EXTT9=
EXTT10=
EXTT11=
PLAYORDER=
